<svg width="19" height="19" viewBox="0 0 19 19" fill="none" xmlns="http://www.w3.org/2000/svg">
<mask id="mask0_10_31" style="mask-type:alpha" maskUnits="userSpaceOnUse" x="0" y="0" width="19" height="19">
<rect width="19" height="19" fill="#D9D9D9"/>
</mask>
<g mask="url(#mask0_10_31)">
<path d="M4.75008 17.4165C4.31466 17.4165 3.94192 17.2615 3.63185 16.9514C3.32178 16.6413 3.16675 16.2686 3.16675 15.8332V7.9165C3.16675 7.48109 3.32178 7.10834 3.63185 6.79827C3.94192 6.48821 4.31466 6.33317 4.75008 6.33317H5.54175V4.74984C5.54175 3.6547 5.92769 2.72119 6.69956 1.94932C7.47144 1.17744 8.40494 0.791504 9.50008 0.791504C10.5952 0.791504 11.5287 1.17744 12.3006 1.94932C13.0725 2.72119 13.4584 3.6547 13.4584 4.74984V6.33317H14.2501C14.6855 6.33317 15.0582 6.48821 15.3683 6.79827C15.6784 7.10834 15.8334 7.48109 15.8334 7.9165V15.8332C15.8334 16.2686 15.6784 16.6413 15.3683 16.9514C15.0582 17.2615 14.6855 17.4165 14.2501 17.4165H4.75008ZM9.50008 13.4582C9.9355 13.4582 10.3082 13.3031 10.6183 12.9931C10.9284 12.683 11.0834 12.3103 11.0834 11.8748C11.0834 11.4394 10.9284 11.0667 10.6183 10.7566C10.3082 10.4465 9.9355 10.2915 9.50008 10.2915C9.06466 10.2915 8.69192 10.4465 8.38185 10.7566C8.07178 11.0667 7.91675 11.4394 7.91675 11.8748C7.91675 12.3103 8.07178 12.683 8.38185 12.9931C8.69192 13.3031 9.06466 13.4582 9.50008 13.4582ZM7.12508 6.33317H11.8751V4.74984C11.8751 4.09012 11.6442 3.52935 11.1824 3.06755C10.7206 2.60574 10.1598 2.37484 9.50008 2.37484C8.84036 2.37484 8.2796 2.60574 7.81779 3.06755C7.35598 3.52935 7.12508 4.09012 7.12508 4.74984V6.33317Z" fill="#B7B7B7"/>
</g>
</svg>
