<svg width="19" height="19" viewBox="0 0 19 19" fill="none" xmlns="http://www.w3.org/2000/svg">
<mask id="mask0_195_188" style="mask-type:alpha" maskUnits="userSpaceOnUse" x="0" y="0" width="19" height="19">
<rect width="19" height="19" fill="#D9D9D9"/>
</mask>
<g mask="url(#mask0_195_188)">
<path d="M9.50011 12.6665C10.4897 12.6665 11.3308 12.3202 12.0236 11.6274C12.7163 10.9347 13.0626 10.0936 13.0626 9.104C13.0626 8.11442 12.7163 7.27327 12.0236 6.58057C11.3308 5.88786 10.4897 5.5415 9.50011 5.5415C8.51053 5.5415 7.66938 5.88786 6.97668 6.58057C6.28397 7.27327 5.93761 8.11442 5.93761 9.104C5.93761 10.0936 6.28397 10.9347 6.97668 11.6274C7.66938 12.3202 8.51053 12.6665 9.50011 12.6665ZM9.50011 11.2415C8.90636 11.2415 8.40168 11.0337 7.98605 10.6181C7.57043 10.2024 7.36261 9.69775 7.36261 9.104C7.36261 8.51025 7.57043 8.00557 7.98605 7.58994C8.40168 7.17432 8.90636 6.9665 9.50011 6.9665C10.0939 6.9665 10.5986 7.17432 11.0142 7.58994C11.4298 8.00557 11.6376 8.51025 11.6376 9.104C11.6376 9.69775 11.4298 10.2024 11.0142 10.6181C10.5986 11.0337 10.0939 11.2415 9.50011 11.2415ZM9.50011 15.0415C7.57372 15.0415 5.81886 14.5038 4.23553 13.4285C2.6522 12.3531 1.50428 10.9116 0.791779 9.104C1.50428 7.29636 2.6522 5.85487 4.23553 4.77952C5.81886 3.70418 7.57372 3.1665 9.50011 3.1665C11.4265 3.1665 13.1814 3.70418 14.7647 4.77952C16.348 5.85487 17.4959 7.29636 18.2084 9.104C17.4959 10.9116 16.348 12.3531 14.7647 13.4285C13.1814 14.5038 11.4265 15.0415 9.50011 15.0415Z" fill="#B7B7B7"/>
</g>
</svg>
