<svg width="19" height="19" viewBox="0 0 19 19" fill="none" xmlns="http://www.w3.org/2000/svg">
<mask id="mask0_195_201" style="mask-type:alpha" maskUnits="userSpaceOnUse" x="0" y="0" width="19" height="19">
<rect width="19" height="19" fill="#D9D9D9"/>
</mask>
<g mask="url(#mask0_195_201)">
<path d="M12.7458 10.5288L11.5979 9.38089C11.7167 8.76075 11.5385 8.1802 11.0635 7.63923C10.5885 7.09825 9.97499 6.88714 9.22291 7.00589L8.07499 5.85798C8.29929 5.75242 8.5269 5.67325 8.7578 5.62048C8.9887 5.5677 9.2361 5.54131 9.49999 5.54131C10.4896 5.54131 11.3307 5.88766 12.0234 6.58037C12.7161 7.27308 13.0625 8.11423 13.0625 9.10381C13.0625 9.3677 13.0361 9.61509 12.9833 9.846C12.9305 10.0769 12.8514 10.3045 12.7458 10.5288ZM15.2792 13.0226L14.1312 11.9142C14.6326 11.5316 15.0779 11.1127 15.4672 10.6575C15.8564 10.2022 16.1896 9.68436 16.4667 9.10381C15.8069 7.77117 14.8602 6.71232 13.6266 5.92725C12.3929 5.14218 11.0174 4.74964 9.49999 4.74964C9.11735 4.74964 8.74131 4.77603 8.37186 4.82881C8.00242 4.88159 7.63957 4.96075 7.28332 5.06631L6.05624 3.83923C6.59721 3.61492 7.15138 3.44669 7.71874 3.33454C8.2861 3.22239 8.87985 3.16631 9.49999 3.16631C11.4924 3.16631 13.267 3.71718 14.8239 4.81891C16.3809 5.92065 17.509 7.34895 18.2083 9.10381C17.9049 9.88228 17.5057 10.6047 17.0109 11.271C16.5161 11.9373 15.9389 12.5212 15.2792 13.0226ZM15.675 17.8913L12.35 14.6059C11.8882 14.751 11.4231 14.8599 10.9547 14.9325C10.4863 15.005 10.0014 15.0413 9.49999 15.0413C7.50763 15.0413 5.73298 14.4904 4.17603 13.3887C2.61909 12.287 1.49096 10.8587 0.791656 9.10381C1.06874 8.4045 1.41839 7.75468 1.84061 7.15433C2.26284 6.55398 2.74443 6.01631 3.28541 5.54131L1.10832 3.32464L2.21666 2.21631L16.7833 16.783L15.675 17.8913ZM4.39374 6.64964C4.0111 6.9927 3.66145 7.36874 3.34478 7.77777C3.02811 8.1868 2.75763 8.62881 2.53332 9.10381C3.19305 10.4364 4.13975 11.4953 5.37343 12.2804C6.60711 13.0654 7.98263 13.458 9.49999 13.458C9.76388 13.458 10.0212 13.4415 10.2719 13.4085C10.5226 13.3755 10.7799 13.3392 11.0437 13.2996L10.3312 12.5476C10.1861 12.5871 10.0476 12.6168 9.91562 12.6366C9.78367 12.6564 9.64513 12.6663 9.49999 12.6663C8.51041 12.6663 7.66926 12.32 6.97655 11.6272C6.28384 10.9345 5.93749 10.0934 5.93749 9.10381C5.93749 8.95867 5.94739 8.82013 5.96718 8.68818C5.98697 8.55624 6.01666 8.4177 6.05624 8.27256L4.39374 6.64964Z" fill="#B7B7B7"/>
</g>
</svg>
